<svg xmlns="http://www.w3.org/2000/svg" viewBox="0 0 512 512">
  <rect width="512" height="512" rx="112" fill="#09090b"/>
  <path d="M160 304c0-79.5 60.5-144 136-144 20 0 39.1 4.6 56 12.7 8.5 4.1 12.1 14.3 8 22.8-4.1 8.5-14.3 12.1-22.8 8-12.3-5.9-26.3-9.3-41.2-9.3-55.2 0-100 48.2-100 107.6V336c0 9.4-7.6 17-17 17s-17-7.6-17-17v-32z" fill="#8b5cf6"/>
  <path d="M352 208c0 79.5-60.5 144-136 144-20 0-39.1-4.6-56-12.7-8.5-4.1-12.1-14.3-8-22.8 4.1-8.5 14.3-12.1 22.8-8 12.3 5.9 26.3 9.3 41.2 9.3 55.2 0 100-48.2 100-107.6V176c0-9.4 7.6-17 17-17s17 7.6 17 17v32z" fill="#f97316"/>
</svg>

