<svg xmlns="http://www.w3.org/2000/svg" viewBox="0 0 512 512">
  <rect width="512" height="512" fill="#09090b"/>
  <circle cx="256" cy="256" r="198" fill="#12121a"/>
  <path d="M178 318c0-67.7 51.6-122.5 116-122.5 17 0 33.3 3.9 47.7 10.8 7.2 3.5 10.3 12.2 6.8 19.4-3.5 7.2-12.2 10.3-19.4 6.8-10.5-5-22.5-7.9-35.1-7.9-47 0-85 41-85 91.4V343c0 8-6.5 14.5-14.5 14.5S178 351 178 343v-25z" fill="#8b5cf6"/>
  <path d="M334 194c0 67.7-51.6 122.5-116 122.5-17 0-33.3-3.9-47.7-10.8-7.2-3.5-10.3-12.2-6.8-19.4 3.5-7.2 12.2-10.3 19.4-6.8 10.5 5 22.5 7.9 35.1 7.9 47 0 85-41 85-91.4V169c0-8 6.5-14.5 14.5-14.5S334 161 334 169v25z" fill="#f97316"/>
</svg>

